<?xml version="1.0" encoding="utf-8"?>
<!-- Generator: Adobe Illustrator 20.0.0, SVG Export Plug-In . SVG Version: 6.00 Build 0)  -->
<svg version="1.1" id="Layer_1" xmlns="http://www.w3.org/2000/svg" xmlns:xlink="http://www.w3.org/1999/xlink" x="0px" y="0px"
	 viewBox="0 0 663 662.2" style="enable-background:new 0 0 663 662.2;" xml:space="preserve">
<style type="text/css">
	.st0{fill:#FFFFFF;}
</style>
<g>
	<path class="st0" d="M24.6,626l5.7-16.7h0.1l5.4,16.7H24.6z M19.5,640.8l2.9-8.3h15.5l2.8,8.3h8.4l-13.6-39h-10l-14.1,39H19.5z"/>
	<polygon class="st0" points="104.3,607.2 104.4,607.3 104.4,640.8 112.3,640.8 112.3,601.7 99,601.7 90.1,630.1 90,630.1 
		81.9,601.7 68.1,601.7 68.1,640.8 76,640.8 76,607.3 76.1,607.2 86.4,640.8 93.4,640.8 	"/>
	<path class="st0" d="M126.6,623.9c0.1-3,0.9-5.7,4.7-5.7c3.9,0,4.8,2.8,4.8,5.7H126.6z M144.4,629.3c0-1.8,0-3.5-0.2-5.2
		c-0.2-1.7-0.6-3.4-1.4-4.9c-2.3-4.7-6.5-6.5-11.6-6.5c-8.3,0-13.1,6.3-13.1,14.5c0,9.1,3.7,14.3,13.1,14.3c6.3,0,11.6-2.2,12.3-8.9
		h-7.3c-0.8,2.5-2.2,3.5-5,3.5c-4.2,0-4.7-3.3-4.7-6.8L144.4,629.3L144.4,629.3z"/>
	<path class="st0" d="M157.7,613.6h-8.1v27.2h8.1v-16.3c0.1-3.9,2.3-6.2,4.9-6.2c4,0,4.8,3.3,4.9,6.2v16.3h8.1v-16.3
		c0.1-3.9,2.3-6.2,4.9-6.2c4,0,4.8,3.3,4.9,6.2v16.3h8.1v-16.3c0-2.2,0-4.4-0.8-6.5c-1.1-3-5.6-5.2-8.7-5.2c-4.1,0-6.7,1.6-9.2,5.2
		c-1.1-3-5.6-5.2-8.7-5.2c-4.1,0-6.6,1.6-8.3,4h-0.1V613.6z"/>
	<path class="st0" d="M199.8,635.3c0,1.8-0.2,3.6-0.3,5.4h8.1c0.1-1.3,0.2-2.5,0.2-3.8h0.1c1.8,3.2,4.8,4.6,8.4,4.6
		c7.9,0,11.7-7.4,11.7-14.4c0-7.3-4.3-14.4-12.7-14.4c-2.8,0-5.7,1.7-7.3,4h-0.1v-15h-8.1L199.8,635.3L199.8,635.3z M207.9,627.2
		c0-3.7,1.5-9,5.8-9c5.2,0,5.8,4.8,5.8,9c0,4.2-0.6,9-5.8,9C209.4,636.2,207.9,630.9,207.9,627.2"/>
	<path class="st0" d="M240.8,623.9c0.1-3,0.9-5.7,4.7-5.7c3.9,0,4.8,2.8,4.8,5.7H240.8z M258.6,629.3c0-1.8,0-3.5-0.2-5.2
		c-0.2-1.7-0.6-3.4-1.4-4.9c-2.3-4.7-6.5-6.5-11.6-6.5c-8.3,0-13,6.3-13,14.5c0,9.1,3.7,14.3,13,14.3c6.3,0,11.6-2.2,12.3-8.9h-7.3
		c-0.7,2.5-2.1,3.5-5,3.5c-4.2,0-4.7-3.3-4.7-6.8L258.6,629.3L258.6,629.3z"/>
	<path class="st0" d="M263.1,613.6c0.1,2,0.3,4.3,0.3,5.4l0.1,21.7h8.1v-13.5c0-1.8,0.2-3.3,1.1-4.8c0.8-1.1,2.6-1.9,4-2h3.5v-7.2
		c-4-0.1-7.5,1-9.2,5.2h-0.1l-0.2-4.9L263.1,613.6L263.1,613.6L263.1,613.6z"/>
	<path class="st0" d="M307,627.2c0-4.3,0.8-9,5.8-9c5,0,5.8,4.6,5.8,9c0,4.3-0.8,9-5.8,9C307.8,636.2,307,631.5,307,627.2
		 M327,627.2c0-8.5-5.3-14.4-14.2-14.4c-8.9,0-14.2,5.8-14.2,14.4c0,8.6,5.3,14.4,14.2,14.4C321.7,641.6,327,635.7,327,627.2"/>
	<path class="st0" d="M347.1,601.3c-1.5-0.2-3-0.4-4.4-0.4c-8.8,0-9.5,5-9.3,12.7h-4.1v5.4h4.1v21.7h8.1V619h4.9v-5.4h-4.9
		c-0.2-5.4-0.1-8,5.6-7.3L347.1,601.3L347.1,601.3z"/>
	<path class="st0" d="M397,614.4c-0.4-9.8-7.4-13.5-16.4-13.5c-11.3,0-16.4,8.9-16.4,20.3c0,11.4,5.1,20.3,16.4,20.3
		c9,0,16-3.7,16.4-13.5H388c0,4.1-2.4,7.4-7.5,7.4c-5.9,0-7.5-8.8-7.5-14.3c0-5.5,1.5-14.3,7.5-14.3c5,0,7.5,3.3,7.5,7.4L397,614.4
		L397,614.4z"/>
	<path class="st0" d="M409.7,621.3c-0.1-1.3,0.8-3.9,3.6-3.9c2.9,0,3.7,2.2,3.7,3.4v2.6c-3.2-0.1-7.4,0-10.6,1.4
		c-4.9,2.1-5.8,6.7-5.8,8.6c0,5.3,3.8,8.2,8.9,8.2c3.7,0,6.5-1.3,8.3-4.4h0.1c0,1.1,0.1,2.4,0.3,3.6h7.3c-0.1-0.8-0.3-1.6-0.4-3V623
		c0-8.2-6.1-10.2-11.6-10.2c-2.9,0-5.8,0.4-8,1.7c-2.2,1.2-3.6,3.3-3.7,6.8L409.7,621.3L409.7,621.3L409.7,621.3z M417,628
		c0,3.2-0.2,8.2-4.7,8.2c-2.3,0-3.9-1.6-3.9-3.9C408.4,627.9,414.2,627.9,417,628"/>
	<path class="st0" d="M439.3,627.2c0-3.7,1.4-9,5.8-9c5.2,0,5.9,4.8,5.9,9c0,4.2-0.7,9-5.9,9C440.8,636.2,439.3,630.9,439.3,627.2
		 M439.2,613.6h-8.2c0.1,1.8,0.3,3.6,0.3,5.4v32.1h8.1v-14.2h0.1c1.7,3.2,4.8,4.6,8.3,4.6c7.9,0,11.7-7.4,11.7-14.4
		c0-7.3-4.3-14.4-12.7-14.4c-2.8,0-5.7,1.7-7.2,4h-0.1L439.2,613.6z"/>
	<path class="st0" d="M464.7,608.7h8.6v-7h-8.6V608.7z M465,640.8h8.1v-27.1H465V640.8z"/>
	<path class="st0" d="M476.6,613.6v5.4h5.5v13.4c0,5.9,1.4,9.2,7.7,9.2c1.1,0,5.5-0.4,6.4-0.8V636c-0.9,0.1-1.7,0.2-2.6,0.2
		c-2.8,0-3.3-1-3.3-4.5V619h6.1v-5.4h-6.1v-8.3l-8.1,2.9v5.4L476.6,613.6L476.6,613.6z"/>
	<path class="st0" d="M508.9,621.3c-0.1-1.3,0.8-3.9,3.6-3.9c2.9,0,3.7,2.2,3.7,3.4v2.6c-3.2-0.1-7.4,0-10.6,1.4
		c-4.9,2.1-5.8,6.7-5.8,8.6c0,5.3,3.8,8.2,8.9,8.2c3.7,0,6.5-1.3,8.3-4.4h0.1c0,1.1,0.1,2.4,0.3,3.6h7.3c-0.1-0.8-0.3-1.6-0.4-3V623
		c0-8.2-6.1-10.2-11.6-10.2c-2.9,0-5.8,0.4-8,1.7c-2.2,1.2-3.6,3.3-3.7,6.8L508.9,621.3L508.9,621.3L508.9,621.3z M516.2,628
		c0,3.2-0.2,8.2-4.6,8.2c-2.3,0-3.9-1.6-3.9-3.9C507.6,627.9,513.4,627.9,516.2,628"/>
	<polygon class="st0" points="556.7,640.8 556.7,634.3 539.8,634.3 539.8,601.7 531.4,601.7 531.4,640.8 	"/>
	<path class="st0" d="M569,621.3c-0.1-1.3,0.8-3.9,3.6-3.9c2.9,0,3.7,2.2,3.7,3.4v2.6c-3.2-0.1-7.4,0-10.6,1.4
		c-4.9,2.1-5.8,6.7-5.8,8.6c0,5.3,3.8,8.2,8.9,8.2c3.7,0,6.5-1.3,8.3-4.4h0.1c0,1.1,0.1,2.4,0.3,3.6h7.3c-0.1-0.8-0.3-1.6-0.4-3V623
		c0-8.2-6.1-10.2-11.6-10.2c-2.9,0-5.8,0.4-8,1.7c-2.1,1.2-3.6,3.3-3.7,6.8L569,621.3L569,621.3L569,621.3z M576.4,628
		c0,3.2-0.2,8.2-4.6,8.2c-2.3,0-3.9-1.6-3.9-3.9C567.8,627.9,573.6,627.9,576.4,628"/>
	<path class="st0" d="M599.5,613.6h-8.1v27.2h8.1v-16.3c0.1-3.9,2.3-6.2,4.9-6.2c4,0,4.8,3.3,4.9,6.2v16.3h8.1v-17.7
		c0-0.9-0.1-2.6-0.5-4.3c-1-4-6.2-6-8.9-6c-4.1,0-6.6,1.6-8.3,4.1l-0.1-0.2L599.5,613.6L599.5,613.6z"/>
	<path class="st0" d="M643.1,616.7H643c-1.5-2.3-4.4-4-7.2-4c-8.4,0-12.7,7.1-12.7,14.4c0,7,3.7,14.4,11.7,14.4
		c3.5,0,6.5-1.5,8.3-4.6h0.1c0,1.3,0.1,2.5,0.2,3.8h8.1c-0.1-1.8-0.3-3.6-0.3-5.4v-33.6h-8.1L643.1,616.7L643.1,616.7z M631.4,627.2
		c0-4.2,0.7-9,5.8-9c4.4,0,5.8,5.2,5.8,9c0,3.7-1.4,9-5.8,9C632.1,636.2,631.4,631.3,631.4,627.2"/>
	<path class="st0" d="M403.5,354c20.6,0,32.7,18.4,32.7,37.5c0,19.5-12.6,33.9-32.5,33.9c-20.5,0-33.4-18.8-33.4-37.1
		C370.4,368.6,383.3,354,403.5,354 M404.5,344.6c-27.4-0.6-48.9,20.1-48.9,44.9c0,26.8,21.8,45.3,47.6,45.3c25.9,0,48-19.3,48-45.9
		C451.2,365.4,431.9,344.5,404.5,344.6"/>
	<path class="st0" d="M563.7,356.2v58.2c0,5.9,0.8,15.4-5.7,17.9v0.4h25.8v-0.4c-6.9-4-6.8-9.1-6.8-16.6v-59.5h11.7
		c4.3,0,9.5,0.7,11.2,5.2h0.4l4.2-15.5h-0.4c-1.7,0.8-3.8,0.9-6,0.9h-116h-3.3c-1.7-0.3-3.4-0.3-5-0.9h-0.4l-4.6,15.5h0.4
		c4-3.8,9.9-5.2,15.5-5.2h11.5v58.2c0,5.9,0.8,15.4-5.7,17.9v0.4h25.8v-0.4c-6.9-4-6.8-9.1-6.8-16.6v-59.5L563.7,356.2L563.7,356.2z
		"/>
	<path class="st0" d="M326.2,348c-7.7-1.8-15.8-3.3-23.7-3.3c-26.7,0-45.8,17.9-45.8,44.9c0,27.9,19,45.2,49.8,45.2
		c6.8,0,13.6-1,19.7-3.9l6.7-15.2h-0.4c-8.2,4.7-18,8.2-27.8,8.2c-20.1,0-33.1-17.1-33.1-36.3c0-18.9,12.5-32.1,30.5-32.1
		c8.6,0,17,2.9,24.1,7.4L326.2,348L326.2,348z"/>
	<path class="st0" d="M219.8,347.6c-6.3-1.9-12.9-2.9-19.5-2.9c-15.9,0-32.7,6.3-32.7,22.7c0,27.7,44.9,24,44.9,44.4
		c0,9.1-11.2,13.6-18.7,13.6c-10.2,0-20.9-4.2-28.6-10.8l3.8,16.3c7.4,2.7,15.4,3.9,23.3,3.9c20.4,0,35-13,35-27
		c0-24.1-44.9-23.9-44.9-41.8c0-9,9.4-11.9,16.8-11.9c7.3,0,15.4,3,20.5,8.2L219.8,347.6L219.8,347.6z"/>
	<path class="st0" d="M115.6,390.8H90l12.9-32.8L115.6,390.8z M119.4,400.4l7,18.4c3.5,9.1,4.6,10.6-1.8,13.4v0.4h26.7v-0.4
		c-7.4-3.8-9.8-11.1-12.8-18.5l-27.1-66.8H90.9v0.4c6.3,2,3.8,7.4,2,12.1l-21.8,54.3c-2.9,7.4-5.1,14.7-12.6,18.5v0.4h24v-0.4
		c-6.3-2.3-5.3-6.1-2.6-13.4l6.8-18.4L119.4,400.4L119.4,400.4z"/>
	<path class="st0" d="M194.2,524.6v-19.7c0-2-0.3-5.4,2-6.2v-0.1h-8.6v0.1c2.3,0.9,2,4.2,2,6.2v17.1c0,2,0.3,5.4-2,6.2v0.1h18.6
		l2.4-6h-0.1c-2.3,1.9-4.9,2.9-8,2.8L194.2,524.6z"/>
	<path class="st0" d="M234.3,521.9c0,2,0.3,5.4-2,6.2v0.1h8.6v-0.1c-2.3-0.9-2-4.2-2-6.2v-17.1c0-2-0.3-5.4,2-6.2v-0.1h-8.6v0.1
		c2.3,0.9,2,4.2,2,6.2V521.9z"/>
	<path class="st0" d="M284.7,520.5l-8.5-20c-0.3-0.6-0.6-1.3-0.6-2v0h-7.9v0.1c2.1,1.1,1.6,2.9,1.4,4.2l-2.6,19
		c-0.4,2.4-0.6,4.7-2.5,6.3v0.1h7.4v-0.1c-2.1-1-1.8-2.9-1.4-5.7l2.6-19.5l8.6,20.4c1.1,2.5,1.7,3.8,4,5.5l10.1-25.9l2.6,21.8
		c0,1.5-0.3,2.9-1.9,3.4v0.1h8.7v-0.1c-1.8-1.3-2-2.5-2.3-4.6l-3-22.2c0-1,0.3-2.4,1.4-2.7v-0.1h-7.8v0c0,0.9-0.3,1.9-0.7,2.8
		L284.7,520.5z"/>
	<path class="st0" d="M329.7,521.9c0,2,0.3,5.4-2,6.2v0.1h8.6v-0.1c-2.3-0.9-2-4.2-2-6.2v-17.1c0-2-0.3-5.4,2-6.2v-0.1h-8.6v0.1
		c2.3,0.9,2,4.2,2,6.2V521.9z"/>
	<path class="st0" d="M371.8,501.7h4.1c1.5,0,3.3,0.2,3.9,1.8h0.1l1.4-5.4h-0.1c-0.6,0.3-1.3,0.3-2.1,0.3h-16.9h-1.1
		c-0.6-0.1-1.2-0.1-1.7-0.3h-0.1l-1.6,5.4h0.1c1.4-1.3,3.4-1.8,5.4-1.8h4v20.2c0,2,0.3,5.3-2,6.2v0.1h9v-0.1
		c-2.4-1.4-2.4-3.2-2.4-5.7L371.8,501.7L371.8,501.7z"/>
	<path class="st0" d="M410.2,513.7h3.4c1.4,0,3.3,0,4,1.3h0.1v-4.8h-0.1c-0.5,0.3-1.3,0.3-2,0.3h-5.4v-8.4c1.4-0.3,3-0.3,4.6-0.3
		c2.1,0,3.9,0.2,5.3,1.8h0.1v-5.3h-0.1c-0.6,0.3-1.4,0.2-2.1,0.2h-14.5v0.1c2.3,0.9,2,4.2,2,6.3v17.1c0,2,0.3,5.4-2,6.2v0.1h18.9
		l2-5.9h-0.1c-2.3,2-5.4,2.9-8.4,2.7l-5.7-0.5L410.2,513.7L410.2,513.7L410.2,513.7L410.2,513.7z"/>
	<path class="st0" d="M454.9,502.2c1.4-0.3,2.7-0.5,4.1-0.5c7.6,0,12,4,12,11.9c0,7.8-6,11.4-12.8,11.4c-1.1,0-2.2-0.1-3.3-0.3
		L454.9,502.2L454.9,502.2z M450.3,521.7c0,2.7,0.3,4.8-2,6.4v0.1h10.9c10.1,0,17-6.2,17-15.2c0-9-6.4-14.6-16.7-14.6h-11.1v0.1
		c2.3,0.7,2,4,2,6.1V521.7L450.3,521.7z"/>
	<path class="st0" d="M332,468.6c-81.7,0-272.5-1.5-272.5-1.5v-3.2c0,0,190.8-1.3,272.5-1.3c81.7,0,271.5,1.3,271.5,1.3v3.2
		C603.5,467.2,413.7,468.6,332,468.6"/>
	<path class="st0" d="M279.8,135.3c19.4,0.3,36.5,12.4,40.8,28.3l-1.3,1.2c-5.8-9.9-17.8-16.8-31.7-16.8c-1.7,0-3.5,0.2-5.2,0.3
		C281.2,144.2,280.4,139.8,279.8,135.3"/>
	<path class="st0" d="M285.9,158.1c2.5-0.7,5.2-1,7.9-1c9.5,0,17.9,4.2,23,10.5c-0.4,0.5-0.7,0.9-1,1.3c-3.8-2.6-8.4-4.1-13.5-4.1
		c-4.4,0-8.5,1.2-12,3.2C288.6,164.8,287.2,161.4,285.9,158.1"/>
	<path class="st0" d="M294.3,174.9c3.7-3,8.6-4.8,13.9-4.8c2.1,0,4.2,0.3,6.1,0.8c-0.4,0.6-0.6,1.1-0.9,1.7
		c-5.5,0.7-10.2,5.2-12.7,11.3C298.5,181.2,296.3,178,294.3,174.9"/>
	<path class="st0" d="M278.6,99.7l-0.1-8.6c7.7-0.7,12.7-1.2,20.5-1.6c15.9,11.8,29.3,35.3,29.3,62.8c0,2,0,4-0.1,6
		c-0.6,0.3-1.1,0.6-1.6,0.9C325.9,126.8,303.8,101.5,278.6,99.7"/>
	<path class="st0" d="M383.2,135.3c-19.4,0.3-36.5,12.4-40.8,28.3l1.3,1.2c5.8-9.9,17.9-16.8,31.7-16.8c1.7,0,3.5,0.2,5.2,0.3
		C381.8,144.2,382.6,139.8,383.2,135.3"/>
	<path class="st0" d="M377.1,158.1c-2.5-0.7-5.2-1-8-1c-9.4,0-17.8,4.2-23,10.5c0.4,0.5,0.7,0.9,1,1.3c3.8-2.6,8.4-4.1,13.5-4.1
		c4.4,0,8.5,1.2,12,3.2C374.4,164.8,375.8,161.4,377.1,158.1"/>
	<path class="st0" d="M368.7,174.9c-3.7-3-8.6-4.8-13.9-4.8c-2.2,0-4.2,0.3-6.1,0.8c0.4,0.6,0.6,1.1,0.9,1.7
		c5.5,0.7,10.1,5.2,12.7,11.3C364.5,181.2,366.7,178,368.7,174.9"/>
	<path class="st0" d="M384.4,99.7l0.1-8.6c-7.7-0.7-12.7-1.2-20.5-1.6c-15.9,11.8-29.3,35.3-29.3,62.8c0,2,0,4,0.1,6
		c0.6,0.3,1.1,0.6,1.6,0.9C337.1,126.8,359.2,101.5,384.4,99.7"/>
	<path class="st0" d="M327,176.9c0,2.3,2.1,4.2,4.7,4.2c2.6,0,4.7-1.9,4.7-4.2c0-2.3-2.1-4.2-4.7-4.2
		C329.1,172.7,327,174.6,327,176.9 M331.4,209.8c-2.4-1.3-4.7-2.7-6.9-4.2c0,0-0.7-20.4-10.9-24.7c0,0,4.8-14.1,17.9-19.9
		c13.1,5.8,18,19.9,18,19.9c-10.2,4.3-10.9,24.7-10.9,24.7c-2.3,1.5-4.6,2.9-6.9,4.2H331.4z"/>
	<path class="st0" d="M331.5,40.6c0.1-7.8-8.2-11.8-13.1-10.5c-4,1-9.1,4.7-6.4,11.3c0,0,2.2-3.8,5.9-3.2c5.4,0.8,6.3,12-5.9,13.3
		c-10.1,1.1-14.1-6.3-9.1-8.4c1.6-0.7,3.4,1.1,3.4,1.1c1.4-3.9-4.6-8.7-9.9-5c-3.2,2.2-2.9,7.8-1,11.3c-1.9,0.1-4.6-1.7-6-4.1
		c0,0-1.7-1.9-3.2-2.5c-2.6-1.1-4.8-0.8-7.3,0.6c6.1,5.2,9.7,14,11.3,20.5c8.5-0.4,26-1.7,41.2-1.7c15.3,0.1,32.7,1.3,41.2,1.7
		c1.6-6.5,5.2-15.4,11.3-20.5c-2.5-1.4-4.6-1.6-7.3-0.6c-1.5,0.6-3.2,2.5-3.2,2.5c-1.4,2.4-4,4.2-6,4.1c2-3.5,2.2-9.1-1-11.3
		c-5.3-3.6-11.3,1.1-9.9,5c0,0,1.8-1.8,3.4-1.1c5,2.1,1,9.4-9.1,8.4c-12.1-1.2-11.3-12.4-5.9-13.3c3.7-0.6,5.9,3.2,5.9,3.2
		c2.7-6.6-2.5-10.3-6.4-11.3C339.6,28.8,331.4,32.8,331.5,40.6L331.5,40.6L331.5,40.6z M326.4,50.9c0-2.8,2.3-5.1,5.1-5.1
		c2.8,0,5.1,2.3,5.1,5.1c0,2.8-2.3,5.1-5.1,5.1C328.7,56.1,326.4,53.8,326.4,50.9"/>
	<polygon class="st0" points="325.3,21 331.5,11 337.7,21 331.5,31.6 	"/>
	<path class="st0" d="M305.7,206h-78.8v-5.4l73,0.1c1.2,1.3,2.4,2.5,3.7,3.7L305.7,206z"/>
	<path class="st0" d="M357.8,206c1.3-1.3,4.1-4,5.3-5.4l75.5,0v5.3H357.8z"/>
	<path class="st0" d="M345.6,84.1c14.8,0.3,30.1,1.4,43.9,2.7l0,32.3c0,42.1-23.6,78.7-58,97.5c-34.4-18.9-57.8-55.5-57.8-97.5
		l0-32.3c13.7-1.3,28.9-2.3,43.5-2.6c1.5-1.1,3-2.2,4.5-3.8c-17.4,0.3-34.6,1.3-51.6,3l0,35.9c0,44.2,25,82.5,61.6,101.6
		c36.7-19.1,61.6-57.4,61.6-101.6l0-35.9c-17-1.7-34.2-2.7-51.6-3c1.5,1.6,2.6,2.5,4,3.8L345.6,84.1z"/>
	<path class="st0" d="M405.8,91.6l-4,0.3c-0.7,1.9-9.1,19.5-9.1,19.5l-0.2,4.1c0,0,10.9-15.1,11.1-20.3c2.3,0.3,4.1,3.9,16.3-1.8
		C408.4,94,407.7,92.4,405.8,91.6"/>
	<path class="st0" d="M206.7,97c3.2-26.3-13-37-17.4-46.5c-6.7-14.4,3.7-24.7,14.6-24.9c-6.4,6.4-8.8,13.5-7.7,22.8
		C197.7,60.4,216.1,72.2,206.7,97"/>
	<path class="st0" d="M186.5,162.4l-1.3,2.4c4.5,8.9,9.6,21.4,6.9,31.6c0.3,0.2,3.4,2,3.4,2v3.5c2.5,0.3,8.9,2.4,12.3,5.2
		c0.1-1-0.6-7.2-0.6-7.2c-7.5-5.6-8.3-23.6-14.9-32.8c7.4-4.1,16.8-11,16.8-11c-9.8-4-16.9-11.5-18.3-20
		c-2.7-15.6,10.8-17.1,14.6-36.4c-9.9,20.6-19.7,22.4-18.4,37.8c0.5,5.1,5.3,13.4,12.5,18.7C197.3,158,190,162.5,186.5,162.4"/>
	<path class="st0" d="M154.6,121.8c10.6-3.2,3.3-38,21.6-33.4c9.3,2.3,9.4,16,6.4,26c-3.4,11.3-15.1,26.8-6.9,30.1
		c3.3,1.3,6.2-0.6,8.3-4.9c-1.2,6.2-6.5,10.9-11,9.5c-6.1-1.9-7.4-10.8-5.9-21.8c1.1-7.8,6.7-17.9,2.9-21.6
		C166,101.9,163.3,125.2,154.6,121.8"/>
	<path class="st0" d="M258.6,83.1c0.1-0.1,3.4,1.4,3.4,1.3c-1-0.7-3.1-2.8-3-3.2c0.7-2,4-5.2,4-5.2l7.8,6.2l3.5,2.5l7.3-1.8
		C276,78,266,66.5,264.5,66c-1.1-0.4-3.3-0.4-4.5-0.1c-5.5,2.2-13,7-13,7c-1.7-0.9-2.7-0.7-5-2.9C237.6,59.3,224,50.8,224,50.8
		l3-1.9l13.4,3.5c0.8-0.9,1-1,1.5-2.7c0.4-1.6-1.4-3-0.7-5.2c0.5-1.7,2.4-4.4,4.1-5.7c-2.3-2.2-3.8-3.2-6.6-4.5
		c-3.4-1.6-5.9-1-9.4-2.5c-4.7-2.1-5.5-6.9-10.5-8.1c-2.3-0.6-3.8-0.7-6.1-0.4l-10.2-8.4l3.9,10.7c3.5-0.3,5.6-0.1,8.8,1.3
		c4,1.7,6.2,3.8,8.3,7.6c2.9,0.6,6,1.1,9.1,2.6c3.6,1.7,7.7,4.6,6.5,7.8c-0.6,1.6-1.4,2.4-2.9,3.1l-9.2-2c0,0-5.2,4.2-11.5,4.6
		c2.7,0.7,4.9,1.8,9.1,4c3.7,2,14.7,15.3,15.7,20.2c2.6,0.5,5.7,2.1,9.3,5.5C254.5,80.1,258.5,83.3,258.6,83.1"/>
	<path class="st0" d="M251,95.4c-5.2,14.4-12.8,26.6-17.7,30.1c-0.7,0.3-2.8,0-4.2,0c10.9-9.6,16.6-20.6,14.1-32.1
		C244.1,94,251,95.4,251,95.4"/>
	<path class="st0" d="M231.6,128.5c14,10.5,10.4,35.8,7.3,44.5c0.5,2.4,13.4,13.1,20.5,15.3l1.9,2.3c0.1,3.2,3.2,11.7,3.2,11.7
		l-14-1.3l1.3-6.4c-1.9-4.5-12-13.4-19.6-14.7l-1.9-1.7c-0.9-9.5-5.3-17.9-5.3-17.9c-6.1,4.2-13.7,7.2-21.9,8.7
		C226.9,159.5,240,138.1,231.6,128.5"/>
	<path class="st0" d="M257.2,91.6l4.1,0.3c0.7,1.9,9.1,19.5,9.1,19.5l0.2,4.1c0,0-10.9-15.1-11.1-20.3c-2.3,0.3-4.1,3.9-16.3-1.8
		C254.6,94,255.3,92.4,257.2,91.6"/>
	<path class="st0" d="M331.5,156.9c-0.6,0.2-0.3,0.2-0.9,0.4c-0.1-5.1-0.1-9.7-0.1-15c0-19.5-4.4-37.6-11.7-51.5
		c0,0,11.2-8.7,12.8-14.7c1.6,6,12.8,14.7,12.8,14.7c-7.2,14-11.7,32-11.7,51.5c0,5.3-0.1,9.8-0.1,15
		C331.9,157.1,332.1,157.2,331.5,156.9"/>
	<path class="st0" d="M324,160.7c-0.6,0.4-1.1,0.8-1.6,1.2c-2.5-20.1-20-36.6-43.7-37.2c0-0.2,0-13.2,0-13.2
		C304.7,112.2,323.1,134.2,324,160.7"/>
	<path class="st0" d="M339,160.7c0.6,0.4,1.1,0.8,1.6,1.2c2.5-20.1,20-36.6,43.7-37.2c0-0.2,0-13.2,0-13.2
		C358.3,112.2,339.9,134.2,339,160.7"/>
	<path class="st0" d="M456.3,97c-3.2-26.3,13-37,17.5-46.5c6.7-14.4-3.8-24.7-14.6-24.9c6.4,6.4,8.8,13.5,7.6,22.8
		C465.2,60.4,446.9,72.2,456.3,97"/>
	<path class="st0" d="M476.5,162.4l1.3,2.4c-4.5,8.9-9.6,21.4-6.9,31.6c-0.3,0.2-3.4,2-3.4,2v3.5c-2.5,0.3-8.8,2.4-12.3,5.2
		c-0.2-1,0.6-7.2,0.6-7.2c7.4-5.6,8.3-23.6,14.9-32.8c-7.5-4.1-16.8-11-16.8-11c9.8-4,16.8-11.5,18.3-20
		c2.7-15.6-10.8-17.1-14.6-36.4c9.9,20.6,19.7,22.4,18.4,37.8c-0.4,5.1-5.3,13.4-12.5,18.7C465.7,158,473,162.5,476.5,162.4"/>
	<path class="st0" d="M508.4,121.8c-10.6-3.2-3.3-38-21.6-33.4c-9.3,2.3-9.4,16-6.4,26c3.4,11.3,15.1,26.8,6.9,30.1
		c-3.3,1.3-6.2-0.6-8.3-4.9c1.2,6.2,6.6,10.9,11,9.5c6.1-1.9,7.4-10.8,5.9-21.8c-1.1-7.8-6.7-17.9-2.9-21.6
		C497,101.9,499.7,125.2,508.4,121.8"/>
	<path class="st0" d="M404.4,83.1c-0.1-0.1-3.4,1.4-3.4,1.3c1-0.7,3.1-2.8,3-3.2c-0.7-2-4-5.2-4-5.2l-7.8,6.2l-3.5,2.5l-7.3-1.8
		C387,78,397,66.5,398.5,66c1.1-0.4,3.3-0.4,4.5-0.1c5.6,2.2,13.1,7,13.1,7c1.7-0.9,2.7-0.7,5-2.9c4.3-10.7,17.9-19.1,17.9-19.1
		l-3-1.9l-13.4,3.5c-0.8-0.9-1-1-1.5-2.7c-0.5-1.6,1.4-3,0.7-5.2c-0.5-1.7-2.4-4.4-4.1-5.7c2.3-2.2,3.8-3.2,6.6-4.5
		c3.4-1.6,5.9-1,9.3-2.5c4.7-2.2,5.5-6.9,10.5-8.1c2.3-0.6,3.8-0.7,6.2-0.4l10.2-8.4l-3.9,10.7c-3.5-0.3-5.6-0.1-8.8,1.3
		c-4,1.8-6.2,3.8-8.3,7.6c-2.9,0.6-6,1.1-9.1,2.6c-3.6,1.7-7.7,4.6-6.5,7.8c0.6,1.6,1.4,2.4,2.9,3.1l9.1-2c0,0,5.2,4.2,11.5,4.6
		c-2.7,0.7-4.9,1.8-9.1,4c-3.7,2-14.7,15.3-15.8,20.2c-2.6,0.5-5.7,2.1-9.3,5.5C408.5,80.1,404.5,83.3,404.4,83.1"/>
	<path class="st0" d="M412,95.4c5.2,14.4,12.8,26.6,17.8,30.1c0.7,0.3,2.8,0,4.2,0c-10.9-9.6-16.5-20.6-14.1-32.1
		C419,94,412,95.4,412,95.4"/>
	<path class="st0" d="M431.4,128.5c-14,10.5-10.4,35.8-7.3,44.5c-0.5,2.4-13.4,13.1-20.5,15.3l-1.9,2.3c-0.1,3.2-3.2,11.7-3.2,11.7
		l14.1-1.3l-1.3-6.4c1.9-4.5,11.9-13.4,19.6-14.7l1.9-1.7c0.9-9.5,5.3-17.9,5.3-17.9c6.1,4.2,13.7,7.2,21.9,8.7
		C436.1,159.5,423,138.1,431.4,128.5"/>
	<path class="st0" d="M435.2,268.6v5.3c81.5-0.4,168.3-1.1,168.3-1.1v-3.2C603.5,269.6,516.7,269,435.2,268.6 M59.5,269.6v3.2
		c0,0,86.5,0.7,168,1.1v-5.3C146,269,59.5,269.6,59.5,269.6"/>
	<path class="st0" d="M267.7,248.5h8.2c3,0,6.7,0.5,7.9,3.6h0.3l2.9-10.9h-0.3c-1.2,0.5-2.6,0.6-4.2,0.6h-34h-2.3
		c-1.2-0.2-2.4-0.2-3.5-0.6h-0.3l-3.2,10.9h0.3c2.8-2.6,6.9-3.6,10.9-3.6h8v40.7c0,4.1,0.5,10.8-4,12.5v0.3h18.1v-0.3
		c-4.8-2.8-4.7-6.4-4.7-11.6L267.7,248.5L267.7,248.5z"/>
	<path class="st0" d="M347.6,272.7v16.5c0,4.1,0.6,10.8-4,12.5v0.3H361v-0.3c-4.7-1.7-4.1-8.4-4.1-12.5v-34.5
		c0-4.1-0.5-10.8,4.1-12.5v-0.3h-17.4v0.3c4.7,1.7,4,8.4,4,12.6v11.3h-32.9v-11.3c0-4.2-0.6-10.9,4-12.6v-0.3h-17.3v0.3
		c4.7,1.7,4,8.4,4,12.5v34.5c0,4.1,0.6,10.8-4,12.5v0.3h17.3v-0.3c-4.6-1.7-4-8.4-4-12.5v-16.5L347.6,272.7L347.6,272.7z"/>
	<path class="st0" d="M395,272.7h6.7c2.8,0,6.7-0.1,8.1,2.6h0.3v-9.7h-0.3c-1.1,0.5-2.6,0.5-4,0.5H395v-17c2.9-0.5,6.1-0.6,9.3-0.6
		c4.2,0,7.9,0.4,10.8,3.6h0.3v-10.7h-0.3c-1.2,0.7-2.7,0.5-4.3,0.5h-29.2v0.3c4.7,1.7,4.1,8.4,4.1,12.6v34.4
		c0,4.1,0.5,10.9-4.1,12.5v0.3h38.1l4.1-12h-0.3c-4.6,4-10.9,5.9-16.9,5.4l-11.6-1.1L395,272.7L395,272.7z"/>
</g>
</svg>
